# xmcd
#
# Track frame offsets:
#	150
#	16131
#	31653
#	47391
#	59411
#	72827
#	88348
#	104180
#	119019
#	133147
#
# Disc length: 1961 seconds
#
# Revision: 0
# Processed by: cddbd v1.5.2PL0 Copyright (c) Steve Scherf et al.
# Submitted via: EasyCDDAExtractor 16.0.6.1
#
DISCID=8c07a70a
DTITLE=Συλλογικός δίσκος - Λαϊκό τραγούδι 1954-1967, 1962-2
DYEAR=2008
DGENRE=Λαϊκή
TTITLE0=Πάνου Πόλυ - Της ταβέρνας το ρολόϊ [Βασίλης Τσιτσάνης]
TTITLE1=Καζαντζίδης Στέλιος-Λύδια Γιώτα - Μιά γυναίκα πέρασε [Χαρ. Λειβαδής-Κώ
TTITLE1=στας Βίρβος]
TTITLE2=Καζαντζίδης Στέλιος-Μαρινέλλα - Μιά παλιά ιστορία [Στέλιος Καζαντζίδης
TTITLE2=Κώστας Βίρβος]
TTITLE3=Ζαγοραίος Σπύρος-Ζαγοραίου Ζωή - Στης Λαρίσης το ποτάμι [Γιώργος Μητσά
TTITLE3=κης]
TTITLE4=Γαβαλάς Πάνος - Θα φύγω και θα με ζητάς [Γιώργος Κόρος]
TTITLE5=Μενιδιάτης Μιχάλης-Κρόκου Σοφία - Τι σού είπανε για μένα [Απόστολος Κα
TTITLE5=λδάρας]
TTITLE6=Καζαντζίδης Στέλιος-Γκίκα Βούλα - Κέρνα με γλυκειά μου αγάπη [Θεόδ. Δε
TTITLE6=ρβενιώτης-Χρ. Κολοκοτρώνης]
TTITLE7=Λίντα Μαίρη-Χιώτης Μανώλης - Θλίψη [Μανώλης Χιώτης]
TTITLE8=Αγγελόπουλος Μανώλης - Άντε στο καλό κυρά μου [Γιώργος Λαύκας]
TTITLE9=Διονυσίου Στράτος-Γκίκα Βούλα - Της πόλης το ρολόϊ [Βασίλης Καραπατάκη
TTITLE9=ς-Κώστας Κοφινιώτης]
EXTD=
EXTT0=
EXTT1=
EXTT2=
EXTT3=
EXTT4=
EXTT5=
EXTT6=
EXTT7=
EXTT8=
EXTT9=
PLAYORDER=
